<?xml version="1.0" encoding="iso-8859-1"?>
<!-- Generator: Adobe Illustrator 19.0.0, SVG Export Plug-In . SVG Version: 6.00 Build 0)  -->
<svg version="1.1" id="Layer_1" xmlns="http://www.w3.org/2000/svg" xmlns:xlink="http://www.w3.org/1999/xlink" x="0px" y="0px"
	 viewBox="0 0 381.875 381.875" style="enable-background:new 0 0 381.875 381.875;" xml:space="preserve">
<g>
	<path style="fill:#9BC9FF;" d="M278.656,152.664V24.388c-35.365,0-64.138,28.772-64.138,64.138S243.291,152.664,278.656,152.664z"
		/>
	<path style="fill:#57A4FF;" d="M342.794,88.526c0-35.365-28.772-64.138-64.138-64.138v128.275
		C314.022,152.664,342.794,123.891,342.794,88.526z"/>
	<path style="fill:#9BC9FF;" d="M278.656,167.664c-28.921,0-56.125,12.686-74.853,33.757c24.061,21.269,39.6,51.962,40.783,86.243
		h134.069v-20C378.656,212.523,333.797,167.664,278.656,167.664z"/>
	<circle style="fill:#2488FF;" cx="270.939" cy="361.875" r="20"/>
	<circle style="fill:#2488FF;" cx="110.939" cy="361.875" r="20"/>
	<circle style="fill:#2488FF;" cx="190.939" cy="361.875" r="20"/>
	<path style="fill:#003F8A;" d="M203.804,201.42c-21.297-18.825-49.262-30.27-79.855-30.27v140.73h120.72v-20
		c0-1.412-0.033-2.816-0.082-4.216C243.404,253.382,227.865,222.689,203.804,201.42z"/>
	<path style="fill:#003F8A;" d="M199.519,75.58c0-41.67-33.9-75.58-75.57-75.58v151.15C165.619,151.15,199.519,117.25,199.519,75.58
		z"/>
	<path style="fill:#005ECE;" d="M3.219,291.88v20h120.73V171.15C57.379,171.15,3.219,225.31,3.219,291.88z"/>
	<path style="fill:#005ECE;" d="M123.949,151.15V0c-41.67,0-75.58,33.91-75.58,75.58C48.369,117.25,82.279,151.15,123.949,151.15z"
		/>
</g>
<g>
</g>
<g>
</g>
<g>
</g>
<g>
</g>
<g>
</g>
<g>
</g>
<g>
</g>
<g>
</g>
<g>
</g>
<g>
</g>
<g>
</g>
<g>
</g>
<g>
</g>
<g>
</g>
<g>
</g>
</svg>
